# AST/ASF file generated using VICON BodyLanguage
# -----------------------------------------------
:version 1.10
:name VICON
:units
  mass 1.0
  length 0.45
  angle deg
:documentation
   .ast/.asf automatically generated from VICON data using
   VICON BodyBuilder and BodyLanguage model FoxedUp or BRILLIANT.MOD
:root
   order TX TY TZ RX RY RZ
   axis XYZ
   position 0 0 0  
   orientation 0 0 0 
:bonedata
  begin
     id 1 
     name lhipjoint
     direction 0.643824 -0.71708 0.266994 
     length 2.52133 
     axis 0 0 0  XYZ
  end
  begin
     id 2 
     name lfemur
     direction 0.34202 -0.939693 0  
     length 7.51824  
     axis 0 0 20  XYZ
    dof rx ry rz
    limits (-160.0 20.0)
           (-70.0 70.0)
           (-60.0 70.0)
  end
  begin
     id 3 
     name ltibia
     direction 0.34202 -0.939693 0   
     length 7.3685   
     axis 0 0 20   XYZ
    dof rx
    limits (-10.0 170.0)
  end
  begin
     id 4 
     name lfoot
     direction 0.105419 -0.289636 0.951314   
     length 2.20972   
     axis -90 7.62852e-016 20   XYZ
    dof rx rz
    limits (-45.0 90.0)
           (-70.0 20.0)
  end
  begin
     id 5 
     name ltoes
     direction 1.53549e-011 -4.21833e-011 1   
     length 1.10139   
     axis -90 7.62852e-016 20   XYZ
    dof rx
    limits (-90.0 20.0)
  end
  begin
     id 6 
     name rhipjoint
     direction -0.608823 -0.743445 0.276811   
     length 2.43192  
     axis 0 0 0  XYZ 
  end
  begin
     id 7 
     name rfemur
     direction -0.34202 -0.939693 0   
     length 7.69715   
     axis 0 0 -20   XYZ
    dof rx ry rz
    limits (-160.0 20.0)
           (-70.0 70.0)
           (-70.0 60.0)
  end
  begin
     id 8 
     name rtibia
     direction -0.34202 -0.939693 0   
     length 7.44924   
     axis 0 0 -20   XYZ
    dof rx
    limits (-10.0 170.0)
 end
 begin
     id 9 
     name rfoot
     direction -0.103614 -0.284677 0.953007   
     length 2.22623  
     axis -90 -7.62852e-016 -20   XYZ
    dof rx rz
    limits (-45.0 90.0)
           (-20.0 70.0)
  end
  begin
     id 10 
     name rtoes
     direction -1.53537e-011 -4.22026e-011 1   
     length 1.11   
     axis -90 -7.62852e-016 -20   XYZ
    dof rx
    limits (-90.0 20.0)
  end
  begin
     id 11 
     name lowerback
     direction -0.0101212 0.99662 -0.0815298   
     length 2.08277   
     axis 0 0 0   XYZ
    dof rx ry rz
    limits (-20.0 45.0)
           (-30.0 30.0)
           (-30.0 30.0)
  end
  begin
     id 12 
     name upperback
     direction 0.024314 0.999591 -0.0150645   
     length 2.08524   
     axis 0 0 0   XYZ
    dof rx ry rz
    limits (-20.0 45.0)
           (-30.0 30.0)
           (-30.0 30.0)
  end
  begin
     id 13 
     name thorax
     direction 0.0285959 0.999323 0.0231357   
     length 2.09645   
     axis 0 0 0   XYZ
    dof rx ry rz
    limits (-20.0 45.0)
           (-30.0 30.0)
           (-30.0 30.0)
  end
  begin
     id 14 
     name lowerneck
     direction -0.065512 0.979301 0.191515   
     length 1.63798   
     axis 0 0 0   XYZ
    dof rx ry rz
    limits (-20.0 45.0)
           (-30.0 30.0)
           (-30.0 30.0)
  end
  begin
     id 15 
     name upperneck
     direction 0.0498479 0.98191 -0.182667   
     length 1.68731   
     axis 0 0 0   XYZ
    dof rx ry rz
    limits (-20.0 45.0)
           (-30.0 30.0)
           (-30.0 30.0)
  end
  begin
     id 16
     name head
     direction 0.0230358 0.996257 -0.0833175  
     length 1.69785  
     axis 0 0 0   XYZ
    dof rx ry rz
    limits (-20.0 45.0)
           (-30.0 30.0)
           (-30.0 30.0)
  end
  begin
     id 17 
     name lclavicle
     direction 0.967963 0.201165 -0.150269  
     length 3.63976  
     axis 0 0 0   XYZ
    dof ry rz
    limits (-20.0 10.0)
           (0.0 20.0)
  end
  begin
     id 18 
     name lhumerus
     direction 1 -4.48954e-011 -2.92837e-028   
     length 5.32462   
     axis 180 -30 -90   XYZ
    dof rx ry rz
    limits (-60.0 90.0)
           (-90.0 90.0)
           (-90.0 90.0)
  end
  begin
     id 19
     name lradius
     direction 1 -4.48958e-011 -6.39511e-027   
     length 3.48402   
     axis 180 -30 -90   XYZ
    dof rx
    limits (-10.0 170.0)
  end
  begin
     id 20
     name lwrist
     direction 1 -4.48975e-011 -1.1413e-026   
     length 1.74201   
     axis 6.88575e-015 90 90   XYZ
    dof ry
    limits (-180.0 0.0)
 end
  begin
     id 21 
     name lhand
     direction 1 -4.48899e-011 -2.28192e-026   
     length 0.572476   
     axis 1.45643e-014 90 90   XYZ
    dof rx rz
    limits (-90.0 90.0)
           (-45.0 45.0)
  end
  begin
     id 22 
     name lfingers
     direction 1 -4.49155e-011 -4.5684e-026   
     length 0.461545   
     axis 2.91283e-014 90 90   XYZ
    dof rx
    limits (0.0 90.0)
  end
  begin
     id 23
     name lthumb
     direction 0.707107 -6.34943e-011 0.707107   
     length 0.662688   
     axis -90 45 -2.25915e-014   XYZ
    dof rx rz
    limits (-45.0 45.0)
           (-45.0 45.0)
  end
  begin
     id 24 
     name rclavicle
     direction -0.964103 0.264019 -0.0282629   
     length 3.54491  
     axis 0 0 0   XYZ 
    dof ry rz
    limits (-10.0 20.0)
           (-20.0 0.0)
  end
  begin
     id 25 
     name rhumerus
     direction -1 -4.48964e-011 -2.45032e-027  
     length 5.33589   
     axis 180 30 90   XYZ
    dof rx ry rz
    limits (-90.0 60.0)
           (-90.0 90.0)
           (-90.0 90.0)
  end
  begin
     id 26 
     name rradius
     direction -1 -4.48987e-011 -1.55093e-027   
     length 3.64134   
     axis 180 30 90   XYZ
    dof rx
    limits (-10.0 170.0)
  end
  begin
     id 27 
     name rwrist
     direction -1 -4.4897e-011 -1.14128e-026   
     length 1.82067   
     axis 6.88575e-015 -90 -90   XYZ
    dof ry
    limits (-180.0 0.0)
  end
  begin
     id 28
     name rhand
     direction -1 -4.49021e-011 -2.28301e-026   
     length 0.734811   
     axis 1.45643e-014 -90 -90   XYZ
    dof rx rz
    limits (-90.0 90.0)
           (-45.0 45.0)
  end
  begin
     id 29
     name rfingers
     direction -1 -4.48862e-011 -4.56319e-026   
     length 0.592424   
     axis 2.91283e-014 -90 -90   XYZ
    dof rx
    limits (0.0 90.0)
  end
  begin
     id 30
     name rthumb
     direction -0.707107 -6.34978e-011 0.707107   
     length 0.850605   
     axis -90 -45 2.25915e-014   XYZ
    dof rx rz
    limits (-45.0 45.0)
           (-45.0 45.0)
  end
:hierarchy
  begin
    root lhipjoint rhipjoint lowerback
    lhipjoint lfemur
    lfemur ltibia
    ltibia lfoot
    lfoot ltoes
    rhipjoint rfemur
    rfemur rtibia
    rtibia rfoot
    rfoot rtoes
    lowerback upperback
    upperback thorax
    thorax lowerneck lclavicle rclavicle
    lowerneck upperneck
    upperneck head
    lclavicle lhumerus
    lhumerus lradius
    lradius lwrist
    lwrist lhand lthumb
    lhand lfingers
    rclavicle rhumerus
    rhumerus rradius
    rradius rwrist
    rwrist rhand rthumb
    rhand rfingers
  end

#!OML:ASF F:\VICON\USERDATA\INSTALL\rory3\rory3.ASF
:FULLY-SPECIFIED
:DEGREES
1
root -2.03354 17.8526 -5.86654 4.57503 1.40291 -1.88425
lowerback 2.12945 -1.90449 -3.18427
upperback -0.273677 -2.5923 2.43202
thorax -1.22085 -1.26785 4.36936
lowerneck -17.3322 -9.86422 -12.4003
upperneck 21.5737 -12.0436 6.69402
head 11.0219 -5.77811 2.57772
rclavicle -1.31695e-015 -1.78906e-015
rhumerus -34.16 -12.7407 -77.5004
rradius 30.9907
rwrist 20.6406
rhand -20.4078 1.05737
rfingers 7.12502
rthumb 5.94611 -28.8392
lclavicle -1.31695e-015 -1.78906e-015
lhumerus -27.3063 3.29812 86.6961
lradius 24.2041
lwrist -13.8024
lhand -9.50432 29.7469
lfingers 7.12502
lthumb 16.4609 59.0685
rfemur -15.4895 9.37028 19.0591
rtibia 30.9173
rfoot -17.3918 -3.445
rtoes -0.902845
lfemur -10.1458 3.69573 -22.9048
ltibia 25.9109
lfoot -17.097 17.3871
ltoes -9.02492
2
root -2.0344 17.8542 -5.86606 4.59152 1.41556 -1.89611
lowerback 2.08029 -1.90191 -3.16543
upperback -0.233829 -2.58718 2.44162
thorax -1.15317 -1.26762 4.36553
lowerneck -17.5651 -9.89786 -12.362
upperneck 21.6932 -12.0735 6.66962
head 11.109 -5.78449 2.54793
rclavicle -4.12975e-014 1.90833e-014
rhumerus -34.0784 -12.6771 -77.5708
rradius 31.0614
rwrist 20.5648
rhand -20.363 0.94525
rfingers 7.12502
rthumb 5.98937 -28.9501
lclavicle -4.12975e-014 1.90833e-014
lhumerus -27.2004 3.49701 86.6619
lradius 24.1873
lwrist -13.8891
lhand -9.49321 29.6996
lfingers 7.12502
lthumb 16.4716 59.0204
rfemur -15.4777 9.33815 19.0734
rtibia 30.8758
rfoot -17.3117 -3.39917
rtoes -0.513087
lfemur -10.1823 3.73654 -22.894
ltibia 25.9038
lfoot -17.0514 17.4014
ltoes -9.21091
3
root -2.03556 17.8541 -5.86558 4.56811 1.43932 -1.90705
lowerback 2.06397 -1.90086 -3.14202
upperback -0.194772 -2.58474 2.45395
thorax -1.10452 -1.2683 4.36337
lowerneck -17.7913 -9.90957 -12.3682
upperneck 21.833 -12.077 6.7003
head 11.207 -5.77628 2.54982
rclavicle -7.97623e-015 4.77083e-015
rhumerus -33.991 -12.6454 -77.612
rradius 31.0687
rwrist 20.5513
rhand -20.3714 0.94099
rfingers 7.12502
rthumb 5.98128 -28.9546
lclavicle -7.97623e-015 4.77083e-015
lhumerus -27.1426 3.56458 86.6642
lradius 24.1576
lwrist -13.9402
lhand -9.55704 29.6068
lfingers 7.12502
lthumb 16.4102 58.9326
rfemur -15.4434 9.31676 19.0912
rtibia 30.8831
rfoot -17.3289 -3.36384
rtoes -0.280561
lfemur -10.1439 3.74933 -22.8745
ltibia 25.8771
lfoot -17.0192 17.3827
ltoes -9.09438
4
root -2.03616 17.8537 -5.86565 4.5698 1.47229 -1.88658
lowerback 2.01235 -1.90686 -3.16688
upperback -0.166798 -2.59204 2.47769
thorax -1.0439 -1.27365 4.39939
lowerneck -17.8903 -9.92853 -12.4083
upperneck 21.8847 -12.0871 6.71689
head 11.2503 -5.77914 2.55596
rclavicle -1.57288e-014 1.19271e-014
rhumerus -33.9325 -12.6112 -77.597
rradius 31.0864
rwrist 20.5499
rhand -20.3553 1.05298
rfingers 7.12502
rthumb 5.99679 -28.8421
lclavicle -1.57288e-014 1.19271e-014
lhumerus -27.1042 3.6029 86.7083
lradius 24.1599
lwrist -13.9788
lhand -9.65959 29.6924
lfingers 7.12502
lthumb 16.3114 59.0264
rfemur -15.4487 9.26016 19.0718
rtibia 30.9113
rfoot -17.331 -3.3266
rtoes -0.382142
lfemur -10.1267 3.71833 -22.8916
ltibia 25.8196
lfoot -17.0032 17.3758
ltoes -8.85589
5
root -2.03753 17.853 -5.86691 4.56828 1.50243 -1.80762
lowerback 1.96869 -1.89176 -3.25055
upperback -0.157044 -2.57312 2.45935
thorax -1.00845 -1.26473 4.42525
lowerneck -17.7555 -9.95664 -12.3746
upperneck 21.7694 -12.1357 6.67841
head 11.1816 -5.80669 2.53386
rclavicle 1.6027e-014 -2.50469e-014
rhumerus -33.9187 -12.6293 -77.5836
rradius 31.0674
rwrist 20.5778
rhand -20.3593 1.02534
rfingers 7.12502
rthumb 5.99293 -28.8699
lclavicle 1.6027e-014 -2.50469e-014
lhumerus -27.1139 3.58903 86.7012
lradius 24.24
lwrist -13.9677
lhand -9.50427 29.6765
lfingers 7.12502
lthumb 16.461 58.9982
rfemur -15.4651 9.20477 18.9945
rtibia 30.9619
rfoot -17.3431 -3.32825
rtoes -0.462563
lfemur -10.103 3.6678 -22.9717
ltibia 25.7497
lfoot -16.9743 17.3832
ltoes -8.77682
6
root -2.03958 17.8537 -5.86683 4.62378 1.49442 -1.62913
lowerback 1.89157 -1.88138 -3.42864
upperback -0.205722 -2.562 2.41423
thorax -1.01075 -1.25733 4.47698
lowerneck -17.5215 -9.97528 -12.3741
upperneck 21.6386 -12.1645 6.60714
head 11.0866 -5.83473 2.51275
rclavicle -4.02539e-014 3.57812e-015
rhumerus -33.9242 -12.6411 -77.5628
rradius 30.987
rwrist 20.6302
rhand -20.2836 0.98141
rfingers 7.12502
rthumb 6.06607 -28.9117
lclavicle -4.02539e-014 3.57812e-015
lhumerus -27.1957 3.51303 86.6947
lradius 24.2965
lwrist -13.796
lhand -9.16955 29.5859
lfingers 7.12502
lthumb 16.7832 58.8805
rfemur -15.5545 9.1615 18.7904
rtibia 31.0235
rfoot -17.3385 -3.28245
rtoes -0.462692
lfemur -10.1243 3.72959 -23.1701
ltibia 25.6724
lfoot -16.8969 17.3358
ltoes -9.0719
7
root -2.0414 17.8539 -5.86834 4.64946 1.46723 -1.55017
lowerback 1.85932 -1.89427 -3.54073
upperback -0.244051 -2.58084 2.43169
thorax -1.02449 -1.26511 4.55852
lowerneck -17.3098 -9.92941 -12.4628
upperneck 21.5067 -12.099 6.63179
head 10.999 -5.81556 2.55597
rclavicle -2.36802e-014 -1.07344e-014
rhumerus -33.9174 -12.494 -77.5826
rradius 30.9695
rwrist 20.5366
rhand -20.2728 0.900721
rfingers 7.12502
rthumb 6.07648 -28.9921
lclavicle -2.36802e-014 -1.07344e-014
lhumerus -27.272 3.65934 86.6849
lradius 24.3101
lwrist -13.7556
lhand -8.90148 29.6377
lfingers 7.12502
lthumb 17.0413 58.9102
rfemur -15.6157 9.22901 18.6914
rtibia 31.076
rfoot -17.3633 -3.25474
rtoes -0.434971
lfemur -10.124 3.75619 -23.2555
ltibia 25.5998
lfoot -16.7954 17.3409
ltoes -9.45401
8
root -2.0425 17.8536 -5.87024 4.64287 1.44577 -1.53774
lowerback 1.88112 -1.88423 -3.57131
upperback -0.274728 -2.56861 2.4487
thorax -1.06749 -1.25717 4.59493
lowerneck -17.1555 -9.89344 -12.5371
upperneck 21.4332 -12.0646 6.71516
head 10.9504 -5.80085 2.60999
rclavicle -3.598e-014 9.14409e-015
rhumerus -33.9085 -12.4196 -77.5919
rradius 30.9494
rwrist 20.4234
rhand -20.3133 0.900766
rfingers 7.12502
rthumb 6.03732 -28.9932
lclavicle -3.598e-014 9.14409e-015
lhumerus -27.3734 3.73711 86.6888
lradius 24.3753
lwrist -13.8178
lhand -8.6676 29.8435
lfingers 7.12502
lthumb 17.2664 59.0964
rfemur -15.6369 9.27898 18.6692
rtibia 31.1177
rfoot -17.4351 -3.24164
rtoes -0.376086
lfemur -10.094 3.81299 -23.2657
ltibia 25.5514
lfoot -16.75 17.2552
ltoes -9.47146
9
root -2.04248 17.8548 -5.87095 4.67034 1.44913 -1.49757
lowerback 1.85243 -1.87975 -3.58779
upperback -0.263524 -2.56228 2.44076
thorax -1.04018 -1.25479 4.59445
lowerneck -17.2501 -9.89874 -12.5081
upperneck 21.4848 -12.0637 6.68659
head 10.9831 -5.7986 2.59143
rclavicle 1.44864e-014 -2.08724e-014
rhumerus -33.7883 -12.4491 -77.6213
rradius 30.8992
rwrist 20.4697
rhand -20.357 0.862294
rfingers 7.12502
rthumb 5.99514 -29.0329
lclavicle 1.44864e-014 -2.08724e-014
lhumerus -27.3238 3.84961 86.6699
lradius 24.3504
lwrist -13.9322
lhand -8.55816 29.9121
lfingers 7.12502
lthumb 17.3717 59.1558
rfemur -15.6789 9.23858 18.6167
rtibia 31.1389
rfoot -17.4572 -3.19758
rtoes -0.583121
lfemur -10.1148 3.81248 -23.3147
ltibia 25.5385
lfoot -16.7407 17.2076
ltoes -9.56592
10
root -2.04395 17.8543 -5.87412 4.69261 1.47045 -1.48363
lowerback 1.83868 -1.86935 -3.58505
upperback -0.240737 -2.54802 2.43187
thorax -1.01104 -1.24881 4.58227
lowerneck -17.3718 -9.93128 -12.5005
upperneck 21.5361 -12.1032 6.70129
head 11.0297 -5.81057 2.58345
rclavicle 2.92213e-014 -9.93923e-015
rhumerus -33.7067 -12.4488 -77.6697
rradius 30.909
rwrist 20.4652
rhand -20.4287 0.744442
rfingers 7.12502
rthumb 5.92594 -29.1527
lclavicle 2.92213e-014 -9.93923e-015
lhumerus -27.2624 3.71032 86.7019
lradius 24.3741
lwrist -13.8138
lhand -8.55056 30.0762
lfingers 7.12502
lthumb 17.379 59.3193
rfemur -15.7231 9.24882 18.6028
rtibia 31.1527
rfoot -17.4466 -3.20831
rtoes -0.395433
lfemur -10.1587 3.78406 -23.3297
ltibia 25.5403
lfoot -16.6973 17.2536
ltoes -9.59348
11
root -2.04626 17.8549 -5.87923 4.68528 1.48752 -1.45073
lowerback 1.88876 -1.85049 -3.6144
upperback -0.233975 -2.52507 2.41378
thorax -1.03415 -1.23671 4.5815
lowerneck -17.4249 -9.95461 -12.512
upperneck 21.5525 -12.1501 6.78672
head 11.0577 -5.82131 2.60548
rclavicle -2.98674e-014 -3.97569e-016
rhumerus -33.712 -12.3946 -77.7339
rradius 30.9793
rwrist 20.4026
rhand -20.517 0.516169
rfingers 7.12502
rthumb 5.84064 -29.3833
lclavicle -2.98674e-014 -3.97569e-016
lhumerus -27.23 3.64619 86.6917
lradius 24.3572
lwrist -13.7991
lhand -8.47024 30.1531
lfingers 7.12502
lthumb 17.4563 59.3893
rfemur -15.7383 9.28337 18.586
rtibia 31.1665
rfoot -17.4399 -3.30928
rtoes -0.502247
lfemur -10.178 3.7918 -23.3531
ltibia 25.539
lfoot -16.6645 17.2207
ltoes -9.49245
12
root -2.04775 17.8546 -5.88146 4.68408 1.48258 -1.45205
lowerback 1.91792 -1.83985 -3.56981
upperback -0.226253 -2.51086 2.3865
thorax -1.04717 -1.22969 4.52862
lowerneck -17.5379 -9.9742 -12.4986
upperneck 21.5841 -12.1931 6.87503
head 11.1007 -5.82618 2.62306
rclavicle -1.73937e-015 -9.34288e-015
rhumerus -33.7331 -12.3591 -77.8143
rradius 31.0748
rwrist 20.3218
rhand -20.555 0.477126
rfingers 7.12502
rthumb 5.804 -29.4234
lclavicle -1.73937e-015 -9.34288e-015
lhumerus -27.2073 3.7174 86.6366
lradius 24.325
lwrist -13.8822
lhand -8.52054 30.103
lfingers 7.12502
lthumb 17.4079 59.3435
rfemur -15.7471 9.28664 18.5957
rtibia 31.1728
rfoot -17.4598 -3.35685
rtoes -0.724012
lfemur -10.194 3.79825 -23.3434
ltibia 25.5438
lfoot -16.6292 17.2442
ltoes -9.49727
13
root -2.04803 17.8536 -5.88118 4.69289 1.44917 -1.4411
lowerback 1.89704 -1.83252 -3.53287
upperback -0.217172 -2.49985 2.36115
thorax -1.02994 -1.22499 4.48014
lowerneck -17.5609 -9.98094 -12.5194
upperneck 21.5594 -12.2147 6.95985
head 11.1058 -5.8272 2.65222
rclavicle -2.65874e-015 -5.36719e-015
rhumerus -33.7051 -12.3304 -77.8886
rradius 31.1196
rwrist 20.2671
rhand -20.5791 0.620626
rfingers 7.12502
rthumb 5.78076 -29.2805
lclavicle -2.65874e-015 -5.36719e-015
lhumerus -27.2406 3.75938 86.5874
lradius 24.3376
lwrist -13.9145
lhand -8.57857 29.875
lfingers 7.12502
lthumb 17.3521 59.1204
rfemur -15.7676 9.2484 18.5719
rtibia 31.1762
rfoot -17.4472 -3.26983
rtoes -0.464491
lfemur -10.197 3.78101 -23.3636
ltibia 25.5367
lfoot -16.6516 17.299
ltoes -9.61584
14
root -2.04774 17.8543 -5.88056 4.73276 1.43598 -1.43076
lowerback 1.80853 -1.83071 -3.49248
upperback -0.208525 -2.49437 2.32919
thorax -0.975078 -1.22396 4.42033
lowerneck -17.5029 -9.98342 -12.5361
upperneck 21.5165 -12.2383 7.03508
head 11.0881 -5.83233 2.68022
rclavicle 1.91827e-014 5.76476e-015
rhumerus -33.6595 -12.4177 -77.9466
rradius 31.1046
rwrist 20.2931
rhand -20.5321 0.789458
rfingers 7.12502
rthumb 5.8261 -29.1104
lclavicle 1.91827e-014 5.76476e-015
lhumerus -27.2405 3.76907 86.5353
lradius 24.3065
lwrist -13.9731
lhand -8.58878 29.8314
lfingers 7.12502
lthumb 17.3422 59.0777
rfemur -15.8121 9.17383 18.5492
rtibia 31.1789
rfoot -17.4297 -3.15027
rtoes -0.276638
lfemur -10.2205 3.7549 -23.3847
ltibia 25.5227
lfoot -16.7124 17.3232
ltoes -9.62012
15
root -2.04828 17.8555 -5.8806 4.76976 1.46404 -1.43861
lowerback 1.70724 -1.84715 -3.47449
upperback -0.185426 -2.51317 2.33099
thorax -0.89327 -1.23584 4.40783
lowerneck -17.5236 -9.99176 -12.4701
upperneck 21.5202 -12.2402 6.93766
head 11.0817 -5.83847 2.63373
rclavicle 2.83641e-014 9.93923e-016
rhumerus -33.5925 -12.4522 -78.007
rradius 31.1264
rwrist 20.3754
rhand -20.5136 0.698022
rfingers 7.12502
rthumb 5.84397 -29.2014
lclavicle 2.83641e-014 9.93923e-016
lhumerus -27.1971 3.78811 86.5157
lradius 24.2742
lwrist -14.019
lhand -8.57961 29.8636
lfingers 7.12502
lthumb 17.3511 59.1091
rfemur -15.8492 9.15626 18.5548
rtibia 31.1915
rfoot -17.4123 -3.14772
rtoes -0.293516
lfemur -10.2421 3.76482 -23.3739
ltibia 25.497
lfoot -16.704 17.2625
ltoes -9.32484
